# xmcd
#
# Track frame offsets:
#	150
#	25053
#	46661
#	68471
#	90190
#	110352
#	129776
#	148009
#	163553
#	185969
#	202997
#	226848
#
# Disc length: 3152 seconds
#
# Revision: 1
# Processed by: cddbd v1.5PL3 Copyright (c) Steve Scherf et al.
# Submitted via: CDex 1.50Beta5
#
DISCID=8c0c4e0c
DTITLE=COBA(小林靖宏) - 運命のレシピ
DYEAR=2003
DGENRE=
TTITLE0=ヴィーナス誕生
TTITLE1=霖雨 -リンユイ-
TTITLE2=ダフネの夢
TTITLE3=Honest Liar
TTITLE4=家族の肖像
TTITLE5=Pearl Rain
TTITLE6=フィゲーラスの迷走地図
TTITLE7=消えた詩人
TTITLE8=Most Decision
TTITLE9=How Sweet!
TTITLE10=丘の上のイノセント
TTITLE11=ヴィーナス誕生 Pure Accordion
EXTD=
EXTT0=
EXTT1=
EXTT2=
EXTT3=
EXTT4=
EXTT5=
EXTT6=
EXTT7=
EXTT8=
EXTT9=
EXTT10=
EXTT11=
PLAYORDER=
